<svg xmlns="http://www.w3.org/2000/svg" viewBox="0 0 280 420"><defs><radialGradient id="bg" cx="50%" cy="40%" r="60%"><stop offset="0%" stop-color="#1a1a4e"/><stop offset="100%" stop-color="#0a0a2e"/></radialGradient></defs><rect width="280" height="420" fill="url(#bg)"/><circle cx="60" cy="50" r="2" fill="#fff" opacity="0.6"/><circle cx="200" cy="40" r="1.5" fill="#fff" opacity="0.4"/><circle cx="230" cy="200" r="1" fill="#fff" opacity="0.5"/><!-- Body --><ellipse cx="140" cy="290" rx="28" ry="50" fill="#00b894" stroke="#008070" stroke-width="2"/><ellipse cx="140" cy="295" rx="18" ry="35" fill="#55efc4"/><!-- Wings spread --><path d="M105,275 Q60,240 50,200 Q70,245 100,265" fill="#008070"/><path d="M175,275 Q220,240 230,200 Q210,245 180,265" fill="#008070"/><path d="M110,280 Q65,250 60,215 Q75,252 105,272" fill="#00b894"/><path d="M170,280 Q215,250 220,215 Q205,252 175,272" fill="#00b894"/><!-- Head --><ellipse cx="140" cy="240" rx="14" ry="12" fill="#00b894" stroke="#008070" stroke-width="1.5"/><!-- Beak --><polygon points="140,237 155,240 140,244" fill="#f39c12"/><!-- Eye --><circle cx="145" cy="238" r="3" fill="#fff"/><circle cx="146" cy="238" r="2" fill="#222"/><!-- Fluffy chest --><ellipse cx="140" cy="276" rx="14" ry="12" fill="#f8f9fa" opacity="0.5"/><!-- Tail feathers long --><path d="M140,335 Q130,380 120,400" fill="none" stroke="#008070" stroke-width="3"/><path d="M140,335 Q140,385 135,405" fill="none" stroke="#00b894" stroke-width="2.5"/><path d="M140,335 Q150,380 160,400" fill="none" stroke="#008070" stroke-width="3"/><!-- Sparkles --><polygon points="60,180 62,188 70,190 62,192 60,200 58,192 50,190 58,188" fill="#FFD700" opacity="0.6"/><text x="140" y="400" text-anchor="middle" fill="#55efc4" font-family="Fredoka, sans-serif" font-size="14" font-weight="bold">天燕座 🐦</text></svg>