<svg xmlns="http://www.w3.org/2000/svg" viewBox="0 0 280 420"><defs><radialGradient id="bg" cx="50%" cy="40%" r="60%"><stop offset="0%" stop-color="#1a1a4e"/><stop offset="100%" stop-color="#0a0a2e"/></radialGradient></defs><rect width="280" height="420" fill="url(#bg)"/><circle cx="60" cy="50" r="2" fill="#fff" opacity="0.6"/><circle cx="200" cy="40" r="1.5" fill="#fff" opacity="0.4"/><circle cx="40" cy="380" r="1" fill="#fff" opacity="0.5"/><!-- Altar base --><rect x="80" y="330" width="120" height="15" rx="3" fill="#8B4513"/><rect x="90" y="315" width="100" height="20" rx="2" fill="#a0522d"/><!-- Altar top --><rect x="85" y="240" width="110" height="15" rx="3" fill="#daa520"/><rect x="80" y="230" width="120" height="15" rx="2" fill="#FFD700"/><!-- Fire --><path d="M110,230 Q100,200 120,185 Q125,205 130,190 Q135,210 140,195 Q145,215 150,200 Q160,220 170,230" fill="#e74c3c" opacity="0.8"/><path d="M120,230 Q115,205 130,192 Q130,210 135,198 Q138,215 142,205 Q146,218 160,230" fill="#f39c12" opacity="0.9"/><path d="M128,230 Q125,215 135,205 Q138,218 142,210 Q145,220 150,230" fill="#FFD700"/><!-- Pillars --><rect x="95" y="250" width="12" height="70" rx="3" fill="#8B4513"/><rect x="173" y="250" width="12" height="70" rx="3" fill="#8B4513"/><!-- Smoke wisps --><path d="M135,180 Q130,170 125,165" fill="none" stroke="#dfe6e9" stroke-width="3" opacity="0.3" stroke-linecap="round"/><path d="M145,178 Q150,168 155,163" fill="none" stroke="#dfe6e9" stroke-width="2.5" opacity="0.25" stroke-linecap="round"/><text x="140" y="400" text-anchor="middle" fill="#FFD700" font-family="Fredoka, sans-serif" font-size="14" font-weight="bold">天坛座 🔥</text></svg>