<svg xmlns="http://www.w3.org/2000/svg" viewBox="0 0 280 420"><defs><radialGradient id="bg" cx="50%" cy="40%" r="60%"><stop offset="0%" stop-color="#1a1a4e"/><stop offset="100%" stop-color="#0a0a2e"/></radialGradient></defs><rect width="280" height="420" fill="url(#bg)"/><circle cx="60" cy="50" r="2" fill="#fff" opacity="0.6"/><circle cx="200" cy="40" r="1.5" fill="#fff" opacity="0.4"/><!-- Body curved --><ellipse cx="140" cy="300" rx="45" ry="55" fill="#27ae60" stroke="#1e8449" stroke-width="3"/><ellipse cx="140" cy="295" rx="28" ry="38" fill="#2ecc71"/><!-- Swirly tail --><path d="M100,340 Q70,360 60,340 Q50,320 65,305" fill="none" stroke="#27ae60" stroke-width="10" stroke-linecap="round"/><path d="M100,340 Q70,360 60,340 Q50,320 65,305" fill="none" stroke="#2ecc71" stroke-width="5" stroke-linecap="round"/><!-- Head --><ellipse cx="140" cy="240" rx="24" ry="20" fill="#27ae60" stroke="#1e8449" stroke-width="2"/><!-- Casque/crest --><path d="M140,222 Q145,200 155,195 Q148,210 152,222" fill="#2ecc71" stroke="#1e8449" stroke-width="1.5"/><!-- Big eye (chameleon style) --><circle cx="148" cy="238" r="10" fill="#f1c40f" stroke="#e67e22" stroke-width="2"/><circle cx="148" cy="238" r="6" fill="#fff"/><circle cx="149" cy="238" r="3.5" fill="#222"/><circle cx="150" cy="236" r="1.5" fill="#fff"/><!-- Mouth --><path d="M158,246 Q165,248 160,252" fill="none" stroke="#1e8449" stroke-width="2" stroke-linecap="round"/><!-- Legs --><path d="M110,350 L95,375" fill="none" stroke="#27ae60" stroke-width="6" stroke-linecap="round"/><path d="M130,348 L125,378" fill="none" stroke="#1e8449" stroke-width="6" stroke-linecap="round"/><path d="M150,348 L155,378" fill="none" stroke="#1e8449" stroke-width="6" stroke-linecap="round"/><path d="M170,350 L185,375" fill="none" stroke="#27ae60" stroke-width="6" stroke-linecap="round"/><!-- Tongue shooting out --><path d="M165,250 Q185,245 200,235" fill="none" stroke="#e74c3c" stroke-width="3" stroke-linecap="round"/><circle cx="202" cy="233" r="3" fill="#e74c3c"/><text x="140" y="400" text-anchor="middle" fill="#2ecc71" font-family="Fredoka, sans-serif" font-size="14" font-weight="bold">蝘蜓座 🦎</text></svg>