<svg xmlns="http://www.w3.org/2000/svg" viewBox="0 0 280 420"><defs><radialGradient id="bg" cx="50%" cy="40%" r="60%"><stop offset="0%" stop-color="#1a1a4e"/><stop offset="100%" stop-color="#0a0a2e"/></radialGradient></defs><rect width="280" height="420" fill="url(#bg)"/><circle cx="60" cy="50" r="2" fill="#fff" opacity="0.6"/><circle cx="200" cy="40" r="1.5" fill="#fff" opacity="0.4"/><!-- Body --><ellipse cx="140" cy="280" rx="35" ry="40" fill="#e8e8e8" stroke="#ccc" stroke-width="2"/><ellipse cx="140" cy="285" rx="22" ry="28" fill="#f8f9fa"/><!-- Wing --><path d="M100,270 Q70,240 105,255 Q130,265 140,275" fill="#dfe6e9" stroke="#ccc" stroke-width="1.5"/><!-- Head --><circle cx="140" cy="235" r="18" fill="#f8f9fa" stroke="#ccc" stroke-width="2"/><!-- Beak --><polygon points="140,230 155,238 140,242" fill="#f39c12" stroke="#e67e22" stroke-width="1"/><!-- Eye --><circle cx="146" cy="232" r="4" fill="#fff"/><circle cx="147" cy="232" r="2.5" fill="#333"/><circle cx="148" cy="230" r="1" fill="#fff"/><!-- Cheek --><circle cx="152" cy="238" r="4" fill="#ff9999" opacity="0.3"/><!-- Olive branch --><path d="M130,242 Q120,250 125,260" fill="none" stroke="#27ae60" stroke-width="2"/><ellipse cx="123" cy="248" rx="5" ry="3" fill="#2ecc71" transform="rotate(-20,123,248)"/><ellipse cx="127" cy="258" rx="4" ry="3" fill="#2ecc71" transform="rotate(10,127,258)"/><!-- Legs --><line x1="133" y1="318" x2="130" y2="345" stroke="#e74c3c" stroke-width="2.5"/><line x1="147" y1="318" x2="150" y2="345" stroke="#e74c3c" stroke-width="2.5"/><!-- Tail --><path d="M108,290 Q90,310 85,330 Q95,315 105,300" fill="#dfe6e9"/><text x="140" y="400" text-anchor="middle" fill="#dfe6e9" font-family="Fredoka, sans-serif" font-size="14" font-weight="bold">天鸽座 🕊</text></svg>