<svg xmlns="http://www.w3.org/2000/svg" viewBox="0 0 280 420"><defs><radialGradient id="bg" cx="50%" cy="40%" r="60%"><stop offset="0%" stop-color="#1a1a4e"/><stop offset="100%" stop-color="#0a0a2e"/></radialGradient></defs><rect width="280" height="420" fill="url(#bg)"/><circle cx="60" cy="50" r="2" fill="#fff" opacity="0.6"/><circle cx="200" cy="40" r="1.5" fill="#fff" opacity="0.4"/><!-- Fish body --><ellipse cx="140" cy="280" rx="65" ry="35" fill="#f39c12" stroke="#e67e22" stroke-width="2"/><ellipse cx="140" cy="275" rx="45" ry="25" fill="#f5b041"/><!-- Stripes --><path d="M160,250 Q170,270 160,295" fill="none" stroke="#e67e22" stroke-width="3" opacity="0.5"/><path d="M175,255 Q185,275 175,300" fill="none" stroke="#e67e22" stroke-width="3" opacity="0.4"/><!-- Eye --><circle cx="185" cy="270" r="7" fill="#fff"/><circle cx="187" cy="270" r="4.5" fill="#222"/><circle cx="188" cy="268" r="2" fill="#fff"/><!-- Mouth --><path d="M200,280 Q205,282 200,287" fill="none" stroke="#e67e22" stroke-width="2" stroke-linecap="round"/><!-- Dorsal fin --><path d="M100,248 Q130,215 170,250" fill="none" stroke="#e74c3c" stroke-width="5" stroke-linecap="round"/><!-- Tail --><polygon points="75,280 40,255 40,305" fill="#f39c12" stroke="#e67e22" stroke-width="2"/><polygon points="70,280 48,265 48,295" fill="#f5b041"/><!-- Cheek --><circle cx="175" cy="282" r="5" fill="#ff9999" opacity="0.4"/><text x="140" y="400" text-anchor="middle" fill="#f39c12" font-family="Fredoka, sans-serif" font-size="14" font-weight="bold">剑鱼座 🐟</text></svg>