<svg xmlns="http://www.w3.org/2000/svg" viewBox="0 0 280 420"><defs><radialGradient id="bg" cx="50%" cy="40%" r="60%"><stop offset="0%" stop-color="#1a1a4e"/><stop offset="100%" stop-color="#0a0a2e"/></radialGradient></defs><rect width="280" height="420" fill="url(#bg)"/><circle cx="60" cy="50" r="2" fill="#fff" opacity="0.6"/><circle cx="200" cy="40" r="1.5" fill="#fff" opacity="0.4"/><!-- Body --><ellipse cx="140" cy="285" rx="30" ry="45" fill="#bdc3c7" stroke="#95a5a6" stroke-width="2"/><ellipse cx="140" cy="290" rx="20" ry="32" fill="#ecf0f1"/><!-- Wing --><path d="M170,270 Q210,250 225,285 Q210,295 175,290" fill="#95a5a6"/><!-- Long neck --><path d="M140,250 Q135,220 140,195" fill="none" stroke="#bdc3c7" stroke-width="14" stroke-linecap="round"/><path d="M140,250 Q135,220 140,195" fill="none" stroke="#ecf0f1" stroke-width="8" stroke-linecap="round"/><!-- Head --><circle cx="140" cy="190" r="14" fill="#f8f9fa" stroke="#ccc" stroke-width="1.5"/><!-- Red crown --><ellipse cx="140" cy="178" rx="8" ry="5" fill="#e74c3c"/><!-- Eye --><circle cx="144" cy="186" r="3.5" fill="#fff"/><circle cx="145" cy="186" r="2" fill="#222"/><!-- Beak --><polygon points="152,186 165,190 152,194" fill="#f39c12"/><!-- Long legs --><line x1="130" y1="325" x2="120" y2="380" stroke="#e74c3c" stroke-width="3.5"/><line x1="150" y1="325" x2="160" y2="380" stroke="#e74c3c" stroke-width="3.5"/><!-- Feet --><path d="M112,380 L120,380 L128,380" fill="none" stroke="#e74c3c" stroke-width="2.5" stroke-linecap="round"/><path d="M152,380 L160,380 L168,380" fill="none" stroke="#e74c3c" stroke-width="2.5" stroke-linecap="round"/><!-- Tail --><path d="M112,300 Q100,330 105,350" fill="none" stroke="#333" stroke-width="4" stroke-linecap="round"/><text x="140" y="400" text-anchor="middle" fill="#bdc3c7" font-family="Fredoka, sans-serif" font-size="14" font-weight="bold">天鹤座 🕊</text></svg>