<svg xmlns="http://www.w3.org/2000/svg" viewBox="0 0 280 420"><defs><radialGradient id="bg" cx="50%" cy="40%" r="60%"><stop offset="0%" stop-color="#1a1a4e"/><stop offset="100%" stop-color="#0a0a2e"/></radialGradient></defs><rect width="280" height="420" fill="url(#bg)"/><circle cx="60" cy="50" r="2" fill="#fff" opacity="0.6"/><circle cx="200" cy="40" r="1.5" fill="#fff" opacity="0.4"/><!-- Body --><ellipse cx="140" cy="300" rx="40" ry="42" fill="#5d6d7e" stroke="#2c3e50" stroke-width="3"/><ellipse cx="140" cy="305" rx="26" ry="30" fill="#7f8c8d"/><!-- Head --><ellipse cx="140" cy="250" rx="28" ry="26" fill="#5d6d7e" stroke="#2c3e50" stroke-width="2"/><!-- Face mask --><ellipse cx="140" cy="254" rx="22" ry="18" fill="#e8e8e8"/><!-- Ears --><polygon points="114,240 100,215 120,235" fill="#5d6d7e" stroke="#2c3e50" stroke-width="2"/><polygon points="114,240 107,222 118,236" fill="#e8c8c8"/><polygon points="166,240 180,215 160,235" fill="#5d6d7e" stroke="#2c3e50" stroke-width="2"/><polygon points="166,240 173,222 162,236" fill="#e8c8c8"/><!-- Eyes --><circle cx="130" cy="248" r="6" fill="#fff"/><circle cx="150" cy="248" r="6" fill="#fff"/><circle cx="131" cy="248" r="4" fill="#f39c12"/><circle cx="151" cy="248" r="4" fill="#f39c12"/><circle cx="131" cy="247" r="1.5" fill="#333"/><circle cx="151" cy="247" r="1.5" fill="#333"/><!-- Nose --><ellipse cx="140" cy="258" rx="6" ry="4" fill="#222"/><!-- Mouth --><path d="M133,264 Q140,272 147,264" fill="none" stroke="#333" stroke-width="2" stroke-linecap="round"/><!-- Legs --><rect x="115" y="336" width="10" height="32" rx="5" fill="#5d6d7e"/><rect x="130" y="338" width="10" height="30" rx="5" fill="#2c3e50"/><rect x="140" y="338" width="10" height="30" rx="5" fill="#2c3e50"/><rect x="155" y="336" width="10" height="32" rx="5" fill="#5d6d7e"/><ellipse cx="120" cy="370" rx="7" ry="4" fill="#2c3e50"/><ellipse cx="160" cy="370" rx="7" ry="4" fill="#2c3e50"/><!-- Tail --><path d="M100,300 Q80,280 75,260 Q85,275 100,295" fill="#5d6d7e"/><text x="140" y="400" text-anchor="middle" fill="#7f8c8d" font-family="Fredoka, sans-serif" font-size="14" font-weight="bold">豺狼座 🐺</text></svg>