<svg xmlns="http://www.w3.org/2000/svg" viewBox="0 0 280 420"><defs><radialGradient id="bg" cx="50%" cy="40%" r="60%"><stop offset="0%" stop-color="#1a1a4e"/><stop offset="100%" stop-color="#0a0a2e"/></radialGradient></defs><rect width="280" height="420" fill="url(#bg)"/><circle cx="60" cy="50" r="2" fill="#fff" opacity="0.6"/><circle cx="200" cy="40" r="1.5" fill="#fff" opacity="0.4"/><!-- Arc body --><path d="M50,330 L140,120 L230,330" fill="none" stroke="#f1c40f" stroke-width="6" stroke-linecap="round"/><path d="M60,325 L140,128 L220,325" fill="none" stroke="#FFD700" stroke-width="3" stroke-linecap="round"/><!-- Pivot --><circle cx="140" cy="200" r="12" fill="#8B4513"/><circle cx="140" cy="200" r="6" fill="#FFD700"/><circle cx="140" cy="200" r="3" fill="#f1c40f"/><!-- Sight arm --><line x1="140" y1="200" x2="80" y2="250" stroke="#e74c3c" stroke-width="4" stroke-linecap="round"/><circle cx="80" cy="250" r="4" fill="#e74c3c"/><!-- Telescope arm --><line x1="140" y1="200" x2="200" y2="250" stroke="#3498db" stroke-width="4" stroke-linecap="round"/><rect x="195" y="240" width="30" height="15" rx="5" fill="#3498db" stroke="#2980b9" stroke-width="1.5" transform="rotate(35,210,248)"/><circle cx="228" cy="245" r="6" fill="#fff" stroke="#2980b9" stroke-width="2"/><circle cx="228" cy="245" r="3" fill="#1a1a4e"/><!-- Base stand --><rect x="130" y="330" width="20" height="30" rx="5" fill="#8B4513"/><ellipse cx="140" cy="360" rx="25" ry="8" fill="#8B4513"/><!-- Cute face --><circle cx="135" cy="196" r="3" fill="#fff"/><circle cx="145" cy="196" r="3" fill="#fff"/><circle cx="136" cy="196" r="2" fill="#222"/><circle cx="146" cy="196" r="2" fill="#222"/><path d="M138,202 Q140,205 142,202" fill="none" stroke="#222" stroke-width="1" stroke-linecap="round"/><text x="140" y="400" text-anchor="middle" fill="#FFD700" font-family="Fredoka, sans-serif" font-size="14" font-weight="bold">南极座 📐</text></svg>