<svg xmlns="http://www.w3.org/2000/svg" viewBox="0 0 280 420"><defs><radialGradient id="bg" cx="50%" cy="40%" r="60%"><stop offset="0%" stop-color="#1a1a4e"/><stop offset="100%" stop-color="#0a0a2e"/></radialGradient></defs><rect width="280" height="420" fill="url(#bg)"/><circle cx="60" cy="50" r="2" fill="#fff" opacity="0.6"/><circle cx="200" cy="40" r="1.5" fill="#fff" opacity="0.4"/><!-- Tail fan --><path d="M60,380 Q80,260 140,240 Q200,260 220,380" fill="#2ecc71" stroke="#27ae60" stroke-width="2" opacity="0.3"/><path d="M70,375 Q88,265 140,248 Q192,265 210,375" fill="#3498db" stroke="#2980b9" stroke-width="2" opacity="0.3"/><path d="M80,370 Q95,275 140,258 Q185,275 200,370" fill="#e74c3c" stroke="#c0392b" stroke-width="2" opacity="0.3"/><path d="M90,365 Q102,285 140,268 Q178,285 190,365" fill="#f39c12" stroke="#e67e22" stroke-width="2" opacity="0.3"/><path d="M100,360 Q108,295 140,278 Q172,295 180,360" fill="#9b59b6" stroke="#8e44ad" stroke-width="2" opacity="0.3"/><!-- Eye spots on feathers --><circle cx="100" cy="330" r="6" fill="#e74c3c"/><circle cx="100" cy="330" r="3" fill="#FFD700"/><circle cx="140" cy="310" r="8" fill="#3498db"/><circle cx="140" cy="310" r="4" fill="#FFD700"/><circle cx="180" cy="330" r="6" fill="#e74c3c"/><circle cx="180" cy="330" r="3" fill="#FFD700"/><circle cx="120" cy="348" r="5" fill="#9b59b6"/><circle cx="120" cy="348" r="2.5" fill="#FFD700"/><circle cx="160" cy="348" r="5" fill="#f39c12"/><circle cx="160" cy="348" r="2.5" fill="#FFD700"/><!-- Body --><ellipse cx="140" cy="290" rx="20" ry="25" fill="#1abc9c" stroke="#16a085" stroke-width="2"/><!-- Head --><circle cx="140" cy="258" r="12" fill="#1abc9c" stroke="#16a085" stroke-width="2"/><!-- Crown --><circle cx="133" cy="248" r="3" fill="#3498db"/><circle cx="140" cy="246" r="3.5" fill="#e74c3c"/><circle cx="147" cy="248" r="3" fill="#f39c12"/><line x1="135" y1="250" x2="133" y2="248" stroke="#1abc9c" stroke-width="2"/><line x1="140" y1="250" x2="140" y2="246" stroke="#1abc9c" stroke-width="2"/><line x1="145" y1="250" x2="147" y2="248" stroke="#1abc9c" stroke-width="2"/><!-- Eye --><circle cx="144" cy="256" r="3" fill="#fff"/><circle cx="145" cy="256" r="2" fill="#222"/><!-- Beak --><polygon points="152,255 160,258 152,261" fill="#f39c12"/><!-- Legs --><line x1="133" y1="313" x2="130" y2="350" stroke="#e67e22" stroke-width="2.5"/><line x1="147" y1="313" x2="150" y2="350" stroke="#e67e22" stroke-width="2.5"/><text x="140" y="400" text-anchor="middle" fill="#1abc9c" font-family="Fredoka, sans-serif" font-size="14" font-weight="bold">孔雀座 🦚</text></svg>