<svg xmlns="http://www.w3.org/2000/svg" viewBox="0 0 280 420"><defs><radialGradient id="bg" cx="50%" cy="40%" r="60%"><stop offset="0%" stop-color="#1a1a4e"/><stop offset="100%" stop-color="#0a0a2e"/></radialGradient></defs><rect width="280" height="420" fill="url(#bg)"/><circle cx="60" cy="50" r="2" fill="#fff" opacity="0.6"/><circle cx="200" cy="40" r="1.5" fill="#fff" opacity="0.4"/><!-- Easel legs --><line x1="100" y1="180" x2="80" y2="360" stroke="#8B4513" stroke-width="6" stroke-linecap="round"/><line x1="180" y1="180" x2="200" y2="360" stroke="#8B4513" stroke-width="6" stroke-linecap="round"/><line x1="140" y1="170" x2="140" y2="350" stroke="#8B4513" stroke-width="5" stroke-linecap="round"/><!-- Shelf --><rect x="85" y="280" width="110" height="8" rx="3" fill="#a0522d"/><!-- Canvas --><rect x="95" y="200" width="90" height="85" rx="4" fill="#f8f9fa" stroke="#bdc3c7" stroke-width="2"/><!-- Painting on canvas - landscape --><rect x="100" y="240" width="80" height="40" rx="2" fill="#27ae60"/><circle cx="160" cy="230" r="15" fill="#f39c12"/><path d="M120,245 Q130,235 140,245" fill="none" stroke="#2ecc71" stroke-width="2"/><rect x="100" y="230" width="10" height="15" fill="#8B4513"/><!-- Paintbrush --><line x1="200" y1="220" x2="220" y2="240" stroke="#8B4513" stroke-width="4" stroke-linecap="round"/><rect x="215" y="238" width="12" height="6" rx="2" fill="#3498db" transform="rotate(20,221,241)"/><!-- Palette --><ellipse cx="60" cy="310" rx="25" ry="18" fill="#f8c471" stroke="#e67e22" stroke-width="2"/><circle cx="55" cy="305" r="5" fill="#e74c3c"/><circle cx="68" cy="310" r="4" fill="#3498db"/><circle cx="52" cy="318" r="4" fill="#27ae60"/><circle cx="65" cy="320" r="3" fill="#f39c12"/><text x="140" y="400" text-anchor="middle" fill="#f5b041" font-family="Fredoka, sans-serif" font-size="14" font-weight="bold">绘架座 🎨</text></svg>