<svg xmlns="http://www.w3.org/2000/svg" viewBox="0 0 280 420"><defs><radialGradient id="bg" cx="50%" cy="40%" r="60%"><stop offset="0%" stop-color="#1a1a4e"/><stop offset="100%" stop-color="#0a0a2e"/></radialGradient></defs><rect width="280" height="420" fill="url(#bg)"/><circle cx="60" cy="50" r="2" fill="#fff" opacity="0.6"/><circle cx="200" cy="40" r="1.5" fill="#fff" opacity="0.4"/><circle cx="230" cy="200" r="1" fill="#fff" opacity="0.5"/><circle cx="40" cy="380" r="1" fill="#fff" opacity="0.5"/><!-- Fish body --><ellipse cx="140" cy="280" rx="70" ry="40" fill="#0984e3" stroke="#0652DD" stroke-width="2"/><ellipse cx="140" cy="275" rx="50" ry="28" fill="#74b9ff"/><!-- Scales pattern --><path d="M100,270 Q120,260 140,270 Q160,280 180,270" fill="none" stroke="#a0d8ef" stroke-width="1.5" opacity="0.5"/><path d="M105,280 Q125,270 145,280 Q165,290 175,280" fill="none" stroke="#a0d8ef" stroke-width="1.5" opacity="0.4"/><!-- Tail --><polygon points="70,280 35,255 35,305" fill="#0984e3" stroke="#0652DD" stroke-width="2"/><polygon points="65,280 40,265 40,295" fill="#74b9ff"/><!-- Eye --><circle cx="195" cy="268" r="8" fill="#fff"/><circle cx="197" cy="268" r="5" fill="#222"/><circle cx="198" cy="266" r="2" fill="#fff"/><!-- Mouth --><path d="M205,278 Q210,280 205,285" fill="none" stroke="#0652DD" stroke-width="2" stroke-linecap="round"/><!-- Cheek --><circle cx="185" cy="280" r="6" fill="#ff9999" opacity="0.4"/><!-- Top fin --><path d="M120,242 Q135,215 160,242" fill="none" stroke="#0984e3" stroke-width="5" stroke-linecap="round"/><!-- Bottom fin --><path d="M115,318 Q135,345 155,318" fill="none" stroke="#0984e3" stroke-width="5" stroke-linecap="round"/><!-- Water flow from mouth --><path d="M220,280 L240,280" fill="none" stroke="#74b9ff" stroke-width="3" opacity="0.5" stroke-linecap="round"/><circle cx="248" cy="280" r="4" fill="#74b9ff" opacity="0.4"/><text x="140" y="400" text-anchor="middle" fill="#74b9ff" font-family="Fredoka, sans-serif" font-size="14" font-weight="bold">南鱼座 🐟</text></svg>