<svg xmlns="http://www.w3.org/2000/svg" viewBox="0 0 280 420"><defs><radialGradient id="bg" cx="50%" cy="40%" r="60%"><stop offset="0%" stop-color="#1a1a4e"/><stop offset="100%" stop-color="#0a0a2e"/></radialGradient></defs><rect width="280" height="420" fill="url(#bg)"/><circle cx="60" cy="50" r="2" fill="#fff" opacity="0.6"/><circle cx="200" cy="40" r="1.5" fill="#fff" opacity="0.4"/><!-- Grid lines --><line x1="50" y1="140" x2="230" y2="140" stroke="#00cec9" stroke-width="1" opacity="0.4"/><line x1="50" y1="190" x2="230" y2="190" stroke="#00cec9" stroke-width="1" opacity="0.4"/><line x1="50" y1="240" x2="230" y2="240" stroke="#00cec9" stroke-width="1" opacity="0.4"/><line x1="50" y1="290" x2="230" y2="290" stroke="#00cec9" stroke-width="1" opacity="0.4"/><line x1="70" y1="100" x2="70" y2="330" stroke="#00cec9" stroke-width="1" opacity="0.4"/><line x1="120" y1="100" x2="120" y2="330" stroke="#00cec9" stroke-width="1" opacity="0.4"/><line x1="170" y1="100" x2="170" y2="330" stroke="#00cec9" stroke-width="1" opacity="0.4"/><line x1="220" y1="100" x2="220" y2="330" stroke="#00cec9" stroke-width="1" opacity="0.4"/><!-- Bright star at intersection --><circle cx="120" cy="190" r="8" fill="#FFD700" opacity="0.8"/><circle cx="120" cy="190" r="4" fill="#f1c40f"/><!-- Other star intersections --><circle cx="170" cy="190" r="5" fill="#FFD700" opacity="0.5"/><circle cx="120" cy="240" r="5" fill="#FFD700" opacity="0.5"/><circle cx="170" cy="240" r="5" fill="#FFD700" opacity="0.5"/><!-- Cute face on the main star --><circle cx="115" cy="186" r="3" fill="#fff"/><circle cx="125" cy="186" r="3" fill="#fff"/><circle cx="116" cy="186" r="2" fill="#222"/><circle cx="126" cy="186" r="2" fill="#222"/><path d="M118,193 Q120,196 122,193" fill="none" stroke="#222" stroke-width="1" stroke-linecap="round"/><text x="140" y="400" text-anchor="middle" fill="#00cec9" font-family="Fredoka, sans-serif" font-size="14" font-weight="bold">网罟座 🔲</text></svg>