<svg xmlns="http://www.w3.org/2000/svg" viewBox="0 0 280 420"><defs><radialGradient id="bg" cx="50%" cy="40%" r="60%"><stop offset="0%" stop-color="#1a1a4e"/><stop offset="100%" stop-color="#0a0a2e"/></radialGradient></defs><rect width="280" height="420" fill="url(#bg)"/><circle cx="60" cy="50" r="2" fill="#fff" opacity="0.6"/><circle cx="200" cy="40" r="1.5" fill="#fff" opacity="0.4"/><!-- Bust statue --><rect x="105" y="230" width="70" height="80" rx="10" fill="#dfe6e9" stroke="#b2bec3" stroke-width="2"/><!-- Head --><ellipse cx="140" cy="220" rx="22" ry="24" fill="#f8f9fa" stroke="#b2bec3" stroke-width="2"/><!-- Face detail --><circle cx="132" cy="215" r="3.5" fill="#b2bec3"/><circle cx="148" cy="215" r="3.5" fill="#b2bec3"/><path d="M135,222 Q140,226 145,222" fill="none" stroke="#b2bec3" stroke-width="1.5" stroke-linecap="round"/><!-- Pedestal --><rect x="90" y="310" width="100" height="12" rx="3" fill="#b2bec3"/><rect x="80" y="318" width="120" height="10" rx="3" fill="#95a5a6"/><!-- Chisel --><rect x="185" y="200" width="8" height="80" rx="3" fill="#7f8c8d" transform="rotate(15,189,240)"/><rect x="182" y="190" width="14" height="12" rx="2" fill="#8B4513" transform="rotate(15,189,196)"/><!-- Hammer --><rect x="75" y="200" width="10" height="50" rx="4" fill="#8B4513" transform="rotate(-10,80,225)"/><rect x="65" y="245" width="30" height="12" rx="3" fill="#566573" transform="rotate(-10,80,251)"/><!-- Stars around --><polygon points="60,170 62,176 68,178 62,180 60,186 58,180 52,178 58,176" fill="#FFD700" opacity="0.5"/><text x="140" y="400" text-anchor="middle" fill="#b2bec3" font-family="Fredoka, sans-serif" font-size="14" font-weight="bold">玉夫座 🗿</text></svg>