<svg xmlns="http://www.w3.org/2000/svg" viewBox="0 0 280 420">
  <defs>
    <radialGradient id="bgGrad" cx="50%" cy="40%" r="60%">
      <stop offset="0%" stop-color="#1a1a4e"/>
      <stop offset="100%" stop-color="#0a0a2e"/>
    </radialGradient>
  </defs>
  <rect width="280" height="420" fill="url(#bgGrad)"/>
  <circle cx="60" cy="40" r="2" fill="#fff" opacity="0.6"/>
  <circle cx="220" cy="55" r="1.5" fill="#fff" opacity="0.4"/>
  <circle cx="40" cy="130" r="1" fill="#fff" opacity="0.5"/>
  <circle cx="240" cy="160" r="1" fill="#fff" opacity="0.4"/>
  <!-- Snake body - curved shape -->
  <path d="M140,380 Q160,350 190,340 Q230,330 240,290 Q250,240 220,210 Q180,170 120,185 Q70,195 60,160 Q50,120 90,100 Q130,80 160,110" fill="none" stroke="#27ae60" stroke-width="22" stroke-linecap="round"/>
  <path d="M140,380 Q160,350 190,340 Q230,330 240,290 Q250,240 220,210 Q180,170 120,185 Q70,195 60,160 Q50,120 90,100 Q130,80 160,110" fill="none" stroke="#2ecc71" stroke-width="14" stroke-linecap="round"/>
  <!-- Pattern on body -->
  <path d="M175,350 Q190,345 200,340" fill="none" stroke="#1e8449" stroke-width="4" stroke-linecap="round" opacity="0.5"/>
  <path d="M230,305 Q238,298 242,290" fill="none" stroke="#1e8449" stroke-width="4" stroke-linecap="round" opacity="0.5"/>
  <path d="M150,185 Q130,180 115,185" fill="none" stroke="#1e8449" stroke-width="4" stroke-linecap="round" opacity="0.5"/>
  <!-- Head -->
  <ellipse cx="160" cy="108" rx="18" ry="12" fill="#27ae60" stroke="#1e8449" stroke-width="2"/>
  <!-- Tongue -->
  <path d="M175,105 Q185,100 188,95" fill="none" stroke="#e74c3c" stroke-width="2.5" stroke-linecap="round"/>
  <path d="M185,100 L192,100" fill="none" stroke="#e74c3c" stroke-width="2.5" stroke-linecap="round"/>
  <!-- Eyes -->
  <circle cx="165" cy="104" r="4.5" fill="#fff"/>
  <circle cx="164" cy="104" r="3" fill="#222"/>
  <circle cx="165" cy="103" r="1" fill="#fff"/>
  <!-- Cute cheeks -->
  <circle cx="157" cy="110" r="5" fill="#ff9999" opacity="0.4"/>
  <!-- Little star on tail -->
  <polygon points="140,382 143,375 150,375 145,370 147,363 140,368 133,363 135,370 130,375 137,375" fill="#FFD700" opacity="0.6"/>
  <text x="140" y="400" text-anchor="middle" fill="#2ecc71" font-family="Fredoka, sans-serif" font-size="14" font-weight="bold">巨蛇座 🐍</text>
</svg>
