<svg xmlns="http://www.w3.org/2000/svg" viewBox="0 0 280 420"><defs><radialGradient id="bg" cx="50%" cy="40%" r="60%"><stop offset="0%" stop-color="#1a1a4e"/><stop offset="100%" stop-color="#0a0a2e"/></radialGradient></defs><rect width="280" height="420" fill="url(#bg)"/><circle cx="60" cy="50" r="2" fill="#fff" opacity="0.6"/><circle cx="200" cy="40" r="1.5" fill="#fff" opacity="0.4"/><!-- Body --><ellipse cx="140" cy="270" rx="50" ry="30" fill="#0984e3" stroke="#0652DD" stroke-width="2"/><ellipse cx="140" cy="265" rx="35" ry="20" fill="#74b9ff"/><!-- Wings --><path d="M90,255 Q50,220 60,190 Q80,230 100,250" fill="#81ecec" stroke="#00cec9" stroke-width="2" opacity="0.8"/><path d="M190,255 Q230,220 220,190 Q200,230 180,250" fill="#81ecec" stroke="#00cec9" stroke-width="2" opacity="0.8"/><!-- Eye --><circle cx="175" cy="262" r="5" fill="#fff"/><circle cx="177" cy="262" r="3" fill="#222"/><circle cx="178" cy="260" r="1" fill="#fff"/><!-- Mouth --><path d="M185,270 Q192,272 185,278" fill="none" stroke="#0652DD" stroke-width="2" stroke-linecap="round"/><!-- Tail --><polygon points="90,270 55,245 55,295" fill="#0984e3" stroke="#0652DD" stroke-width="2"/><!-- Fin wings sides --><path d="M115,295 Q110,320 130,330" fill="none" stroke="#81ecec" stroke-width="4" stroke-linecap="round"/><path d="M165,295 Q170,320 150,330" fill="none" stroke="#81ecec" stroke-width="4" stroke-linecap="round"/><!-- Speed lines --><line x1="75" y1="230" x2="55" y2="225" stroke="#fff" stroke-width="1.5" opacity="0.3" stroke-linecap="round"/><line x1="80" y1="245" x2="58" y2="240" stroke="#fff" stroke-width="1.5" opacity="0.3" stroke-linecap="round"/><polygon points="80,220 82,226 88,228 82,230 80,236 78,230 72,228 78,226" fill="#FFD700" opacity="0.5"/><text x="140" y="400" text-anchor="middle" fill="#74b9ff" font-family="Fredoka, sans-serif" font-size="14" font-weight="bold">飞鱼座 🐟</text></svg>