<svg xmlns="http://www.w3.org/2000/svg" viewBox="0 0 280 420">
  <defs>
    <radialGradient id="bgGrad" cx="50%" cy="40%" r="60%">
      <stop offset="0%" stop-color="#1a1a4e"/>
      <stop offset="100%" stop-color="#0a0a2e"/>
    </radialGradient>
  </defs>
  <rect width="280" height="420" fill="url(#bgGrad)"/>
  <circle cx="50" cy="45" r="2" fill="#fff" opacity="0.6"/>
  <circle cx="220" cy="55" r="1.5" fill="#fff" opacity="0.4"/>
  <circle cx="60" cy="150" r="1" fill="#fff" opacity="0.5"/>
  <!-- Body -->
  <ellipse cx="140" cy="290" rx="40" ry="50" fill="#e67e22" stroke="#d35400" stroke-width="3"/>
  <ellipse cx="140" cy="295" rx="28" ry="38" fill="#f0c078"/>
  <!-- Tail -->
  <path d="M100,310 Q60,290 70,250 Q80,270 95,280 Q100,300 100,310" fill="#e67e22" stroke="#d35400" stroke-width="2"/>
  <circle cx="68" cy="248" r="10" fill="#f8f9fa"/>
  <!-- Head -->
  <ellipse cx="140" cy="225" rx="30" ry="25" fill="#e67e22" stroke="#d35400" stroke-width="3"/>
  <!-- Ears -->
  <polygon points="112,215 95,195 110,205" fill="#e67e22" stroke="#d35400" stroke-width="2"/>
  <polygon points="112,215 102,200 110,208" fill="#f5deb3"/>
  <polygon points="168,215 185,195 170,205" fill="#e67e22" stroke="#d35400" stroke-width="2"/>
  <polygon points="168,215 178,200 170,208" fill="#f5deb3"/>
  <!-- Face white -->
  <ellipse cx="140" cy="230" rx="18" ry="15" fill="#f5deb3" opacity="0.6"/>
  <!-- Eyes -->
  <circle cx="130" cy="222" r="5" fill="#fff"/>
  <circle cx="150" cy="222" r="5" fill="#fff"/>
  <circle cx="131" cy="222" r="3" fill="#2a1a0a"/>
  <circle cx="151" cy="222" r="3" fill="#2a1a0a"/>
  <!-- Nose -->
  <circle cx="140" cy="232" r="4" fill="#222"/>
  <!-- Snout -->
  <ellipse cx="140" cy="238" rx="10" ry="6" fill="#f5deb3"/>
  <path d="M137,238 L137,242 M143,238 L143,242" stroke="#d35400" stroke-width="1"/>
  <!-- Cheeks -->
  <circle cx="120" cy="232" r="4" fill="#ff9999" opacity="0.3"/>
  <circle cx="160" cy="232" r="4" fill="#ff9999" opacity="0.3"/>
  <!-- Legs -->
  <rect x="110" y="335" width="12" height="35" rx="6" fill="#e67e22"/>
  <rect x="130" y="338" width="12" height="32" rx="6" fill="#d35400"/>
  <rect x="140" y="338" width="12" height="32" rx="6" fill="#d35400"/>
  <rect x="158" y="335" width="12" height="35" rx="6" fill="#e67e22"/>
  <ellipse cx="116" cy="372" rx="7" ry="4" fill="#d35400"/>
  <ellipse cx="164" cy="372" rx="7" ry="4" fill="#d35400"/>
  <text x="140" y="400" text-anchor="middle" fill="#e67e22" font-family="Fredoka, sans-serif" font-size="14" font-weight="bold">狐狸座 🦊</text>
</svg>
